<svg width="220" height="70" viewBox="0 0 1972 444" fill="none" xmlns="http://www.w3.org/2000/svg">
<g clip-path="url(#clip0_195_65)">
<path d="M534.275 328.146H506.255V104.049H534.275V328.146Z" fill="white"/>
<path d="M739.456 104.05V330.052H727.678L575.842 120.285V328.146H560.878V104.05H598.121L724.493 278.164V104.05H739.456Z" fill="white"/>
<mask id="mask0_195_65" style="mask-type:luminance" maskUnits="userSpaceOnUse" x="-125" y="-518" width="2360" height="1440">
<path d="M-124.115 922H2235V-518H-124.115V922Z" fill="white"/>
</mask>
<g mask="url(#mask0_195_65)">
<path d="M822.247 315.414C866.819 315.414 903.101 284.534 903.101 216.095C903.101 147.655 866.819 116.782 822.247 116.782H792.334V315.414H822.247ZM933.663 216.095C933.663 286.447 885.278 328.146 825.439 328.146H764.315V104.05H825.439C885.278 104.05 933.663 145.747 933.663 216.095Z" fill="white"/>
<path d="M1120.99 104.05V256.203C1120.99 294.081 1092.97 333.237 1036.32 333.237C973.924 333.237 955.784 295.359 955.784 257.474V104.05H983.79V272.755C983.79 290.261 988.251 320.505 1036.32 320.505C1084.7 320.505 1106.66 287.083 1106.66 256.203V104.05H1120.99Z" fill="white"/>
<path d="M1214.09 196.04C1249.74 203.998 1288.9 212.91 1288.9 264.48C1288.9 302.674 1254.83 333.237 1212.49 333.237C1186.08 333.237 1162.52 321.141 1148.83 303L1158.07 293.762C1169.21 309.68 1189.58 320.505 1212.49 320.505C1233.19 320.505 1270.43 307.773 1270.43 274.669C1270.43 242.201 1238.92 233.606 1206.13 225.649C1173.66 217.69 1141.52 207.182 1141.52 162.618C1141.52 127.608 1173.34 98.9517 1212.49 98.9517C1236.37 98.9517 1257.7 109.777 1270.43 126.012L1261.51 135.241C1251.01 120.92 1232.87 111.69 1212.49 111.69C1196.9 111.69 1160.93 120.602 1160.93 152.118C1160.93 179.17 1184.17 189.36 1214.09 196.04Z" fill="white"/>
<path d="M1455.72 315.414V328.146H1316.93V104.05H1344.95V315.414H1455.72Z" fill="white"/>
<path d="M1455.72 315.414V328.146H1316.93V104.05H1344.95V315.414H1455.72Z" stroke="white" stroke-width="0.333333" stroke-miterlimit="10"/>
<path d="M1494.45 116.782V208.137H1559.7V220.869H1494.45V315.414H1605.22V328.146H1466.43V104.05H1605.22V116.782H1494.45Z" fill="white"/>
<path d="M1494.45 116.782V208.137H1559.7V220.869H1494.45V315.414H1605.22V328.146H1466.43V104.05H1605.22V116.782H1494.45Z" stroke="white" stroke-width="0.333333" stroke-miterlimit="10"/>
<path d="M1804.55 104.05V330.052H1792.77L1640.94 120.285V328.146H1625.97V104.05H1663.22L1789.59 278.164V104.05H1804.55Z" fill="white"/>
<path d="M1804.55 104.05V330.052H1792.77L1640.94 120.285V328.146H1625.97V104.05H1663.22L1789.59 278.164V104.05H1804.55Z" stroke="white" stroke-width="0.333333" stroke-miterlimit="10"/>
<path d="M1896.13 196.04C1931.77 203.998 1970.93 212.91 1970.93 264.48C1970.93 302.674 1936.87 333.237 1894.53 333.237C1868.11 333.237 1844.56 321.141 1830.88 303L1840.1 293.762C1851.24 309.68 1871.62 320.505 1894.53 320.505C1915.22 320.505 1952.47 307.773 1952.47 274.669C1952.47 242.201 1920.96 233.606 1888.17 225.649C1855.7 217.69 1823.55 207.182 1823.55 162.618C1823.55 127.608 1855.38 98.9517 1894.53 98.9517C1918.41 98.9517 1939.73 109.777 1952.47 126.012L1943.56 135.241C1933.04 120.92 1914.9 111.69 1894.53 111.69C1878.94 111.69 1842.96 120.602 1842.96 152.118C1842.96 179.17 1866.2 189.36 1896.13 196.04Z" fill="white" stroke="white" stroke-width="0.333333" stroke-miterlimit="10"/>
<path d="M1.37756 114.927V123.075L189.264 230.186L171.714 240.191L1.37756 143.084V151.234L164.567 244.266L147.016 254.27L1.37756 171.247V179.396L139.87 258.344L122.32 268.348L1.37756 199.402V207.551L115.174 272.423L97.6242 282.427L1.37756 227.559V235.708L90.4776 286.503L72.9282 296.507L1.37756 255.716V263.866L65.7816 300.58L48.2309 310.586L1.37756 283.876V292.024L41.0829 314.66L23.5336 324.666L1.37756 312.034V320.183L16.3856 328.739L1.37756 337.295V338.77L7.1949 342.128L391.31 123.154V115.004L196.411 226.112L1.37756 114.927Z" fill="white"/>
<path d="M32.1061 356.51L391.309 151.737V143.589L25.0034 352.41L32.1061 356.51Z" fill="white"/>
<path d="M57.0169 370.893L391.309 180.321V172.172L49.9156 366.793L57.0169 370.893Z" fill="white"/>
<path d="M81.9283 385.276L391.31 208.905V200.756L74.8257 381.176L81.9283 385.276Z" fill="white"/>
<path d="M106.84 399.659L391.309 237.488V229.34L99.7372 395.557L106.84 399.659Z" fill="white"/>
<path d="M131.751 414.04L391.309 266.072V257.923L124.649 409.94L131.751 414.04Z" fill="white"/>
<path d="M156.662 428.423L391.309 294.656V286.507L149.559 424.323L156.662 428.423Z" fill="white"/>
<path d="M181.322 442.661L391.309 322.952V314.803L174.221 438.561L181.322 442.661Z" fill="white"/>
<path d="M25.2402 99.8658L18.1576 103.955L194.591 204.971L196.346 205.98L374.59 103.99L367.503 99.8978L196.346 197.828L25.2402 99.8658Z" fill="white"/>
<path d="M49.8476 85.6584L42.7649 89.7477L194.592 176.676L196.346 177.685L349.974 89.7784L342.888 85.6864L196.346 169.533L49.8476 85.6584Z" fill="white"/>
<path d="M74.4557 71.4504L67.3717 75.541L194.592 148.38L196.345 149.388L325.36 75.5664L318.272 71.4744L196.345 141.236L74.4557 71.4504Z" fill="white"/>
<path d="M99.0632 57.2433L91.9792 61.3326L194.591 120.083L196.346 121.091L300.744 61.3553L293.656 57.2633L196.346 112.939L99.0632 57.2433Z" fill="white"/>
<path d="M123.671 43.0364L116.587 47.1257L194.591 91.7871L196.346 92.7964L276.13 47.1444L269.04 43.0511L196.346 84.6444L123.671 43.0364Z" fill="white"/>
<path d="M148.279 28.8288L141.194 32.9195L194.591 63.4915L196.346 64.4995L251.515 32.9328L244.425 28.8395L196.346 56.3488L148.279 28.8288Z" fill="white"/>
<path d="M172.887 14.6217L165.801 18.7123L194.591 35.195L196.345 36.2043L226.9 18.7203L219.809 14.627L196.345 28.0523L172.887 14.6217Z" fill="white"/>
<path d="M196.24 1.13872L189.154 5.22938L194.592 8.34272L196.346 9.35205L203.541 5.23472L196.45 1.14005L196.346 1.20005L196.24 1.13872Z" fill="white"/>
</g>
</g>
<defs>
<clipPath id="clip0_195_65">
<rect width="1972" height="444" fill="white"/>
</clipPath>
</defs>
</svg>
