<?xml version="1.0" standalone="no"?>
<!DOCTYPE svg PUBLIC "-//W3C//DTD SVG 20010904//EN"
 "http://www.w3.org/TR/2001/REC-SVG-20010904/DTD/svg10.dtd">
<svg version="1.0" xmlns="http://www.w3.org/2000/svg"
 width="512.000000pt" height="512.000000pt" viewBox="0 0 512.000000 512.000000"
 preserveAspectRatio="xMidYMid meet">
<metadata>
Created by potrace 1.14, written by Peter Selinger 2001-2017
</metadata>
<g transform="translate(0.000000,512.000000) scale(0.100000,-0.100000)"
fill="#000000" stroke="none">
<path d="M2516 5027 l-38 -24 38 -23 39 -22 43 22 42 23 -37 23 c-21 13 -40
23 -43 24 -3 0 -22 -11 -44 -23z"/>
<path d="M2257 4877 c-20 -11 -37 -23 -37 -26 1 -9 326 -191 342 -191 8 0 35
14 61 30 26 17 49 30 51 30 4 0 159 89 205 117 l23 15 -31 19 c-17 10 -38 19
-47 19 -8 0 -62 -27 -119 -60 -160 -92 -136 -90 -251 -24 -54 31 -113 65 -129
75 -30 17 -31 17 -68 -4z"/>
<path d="M1977 4716 c-43 -26 -42 -27 43 -73 30 -16 86 -48 124 -71 37 -23 70
-42 72 -42 2 0 27 -14 56 -31 50 -30 68 -41 156 -90 99 -57 122 -69 131 -69
10 0 599 334 613 348 4 4 -10 17 -32 28 l-38 21 -254 -144 c-139 -80 -262
-149 -273 -154 -16 -8 -66 17 -275 136 -140 81 -262 150 -270 155 -10 5 -29 0
-53 -14z"/>
<path d="M1696 4555 l-38 -23 68 -40 c71 -40 531 -304 594 -340 19 -11 79 -45
133 -76 54 -32 104 -56 111 -54 19 4 886 502 886 509 0 3 -16 14 -36 26 l-36
20 -410 -234 -410 -235 -371 213 c-205 116 -390 222 -412 234 l-40 22 -39 -22z"/>
<path d="M1418 4393 c-16 -8 -28 -17 -28 -21 0 -6 508 -301 708 -412 15 -8 47
-27 72 -41 25 -15 61 -36 80 -46 19 -11 96 -55 170 -97 113 -65 138 -76 156
-67 12 5 116 63 230 129 115 66 225 128 244 139 19 11 159 91 310 178 151 87
297 170 323 184 l48 26 -28 22 c-29 24 -62 29 -79 14 -5 -5 -27 -19 -49 -31
-22 -12 -260 -148 -528 -302 l-488 -279 -257 147 c-141 80 -270 154 -287 164
-373 214 -545 310 -556 309 -8 -1 -26 -8 -41 -16z"/>
<path d="M3810 4185 c-69 -39 -145 -83 -170 -97 -25 -14 -278 -158 -563 -321
l-518 -297 -597 342 c-328 188 -635 363 -682 390 -46 26 -90 48 -96 48 -14 0
-74 -33 -74 -40 0 -3 202 -120 448 -260 246 -140 570 -326 721 -412 150 -87
276 -158 279 -158 4 0 307 172 674 383 367 210 692 395 722 412 30 16 53 32
50 36 -2 4 -19 16 -37 26 l-33 20 -124 -72z"/>
<path d="M4200 4089 c-8 -5 -55 -32 -105 -60 -49 -28 -110 -63 -135 -77 -46
-25 -1137 -650 -1308 -749 l-93 -53 -67 39 c-37 21 -83 48 -102 58 -19 11
-359 205 -754 432 -534 306 -725 411 -742 407 -12 -3 -31 -14 -42 -23 -21 -18
-3 -28 843 -511 l865 -494 843 483 c463 265 852 488 865 494 22 12 22 12 -15
37 -26 17 -43 22 -53 17z"/>
<path d="M588 3913 l-38 -26 198 -112 c108 -61 258 -147 332 -189 74 -43 155
-90 180 -104 25 -13 119 -68 210 -120 91 -52 179 -103 195 -112 17 -9 224
-128 462 -264 l432 -247 998 571 c548 314 999 573 1002 576 7 6 -30 33 -56 40
-17 5 -170 -78 -655 -356 -348 -200 -651 -373 -673 -386 -22 -12 -170 -96
-328 -187 l-289 -165 -926 530 c-510 292 -945 541 -967 553 l-40 23 -37 -25z"/>
<path d="M360 3718 l0 -44 402 -229 c221 -127 429 -245 462 -264 34 -19 297
-169 586 -334 289 -165 550 -313 580 -330 91 -49 91 -50 14 -93 -38 -20 -81
-45 -95 -55 l-25 -18 -390 223 c-816 466 -1331 760 -1374 784 -25 14 -71 40
-102 58 l-58 33 0 -47 1 -47 491 -280 c270 -154 520 -296 554 -315 304 -170
784 -446 784 -452 0 -4 -41 -30 -91 -58 -98 -55 -105 -56 -169 -15 -19 13
-377 217 -795 455 -418 238 -764 435 -768 437 -5 3 -7 -17 -5 -43 l3 -48 160
-91 c88 -51 387 -221 665 -380 278 -158 530 -302 560 -318 30 -17 66 -37 80
-46 14 -9 37 -23 53 -31 15 -7 27 -17 27 -20 0 -13 -180 -112 -194 -107 -8 3
-141 79 -297 168 -156 89 -304 173 -329 187 -25 14 -137 78 -250 142 -113 64
-225 128 -250 142 -25 14 -85 48 -133 77 -49 28 -90 51 -93 51 -2 0 -4 -20 -4
-44 l0 -45 293 -167 c160 -92 310 -177 332 -189 22 -13 179 -102 348 -198 297
-169 308 -176 285 -190 -13 -8 -56 -34 -97 -57 l-73 -42 -42 23 c-22 12 -261
148 -531 302 -269 154 -495 282 -502 284 -9 4 -13 -7 -13 -39 l0 -44 388 -221
c213 -122 403 -230 422 -241 199 -113 194 -109 169 -125 -97 -61 -175 -98
-189 -89 -8 5 -35 20 -60 34 -25 14 -88 50 -140 80 -52 30 -115 66 -140 80
-25 14 -110 63 -190 108 -80 46 -171 98 -202 116 l-58 33 0 -47 1 -47 359
-205 c202 -114 356 -208 351 -213 -5 -5 -47 -30 -95 -57 l-87 -49 -67 36 c-37
20 -74 42 -83 49 -8 8 -18 14 -21 14 -3 0 -84 45 -179 99 l-174 100 -3 -36
c-2 -19 -1 -40 1 -47 3 -7 102 -68 221 -135 120 -68 213 -127 209 -132 -4 -4
-47 -30 -95 -58 l-88 -50 -121 69 c-66 39 -123 70 -125 70 -2 0 -4 -20 -4 -44
l0 -44 80 -47 c44 -26 80 -49 80 -51 0 -2 -36 -24 -80 -50 -44 -25 -80 -49
-80 -54 0 -4 15 -17 33 -27 31 -19 34 -19 62 -3 17 10 206 117 420 240 215
122 410 234 435 248 25 14 186 106 359 204 172 99 330 188 350 199 20 11 52
30 71 41 19 11 244 140 500 285 256 146 512 292 570 325 58 33 125 72 150 86
25 14 88 50 140 80 52 30 115 66 140 80 25 14 171 97 325 185 154 88 305 174
336 191 30 17 157 89 281 160 l225 129 -1 41 c-1 28 -5 40 -14 38 -7 -1 -255
-140 -550 -309 -295 -168 -550 -314 -567 -323 -16 -9 -260 -148 -542 -308
-281 -161 -517 -292 -524 -292 -7 0 -213 114 -458 254 -245 140 -464 264 -486
276 -22 12 -80 46 -130 75 -49 29 -110 64 -135 77 -25 14 -252 143 -504 287
-253 145 -465 265 -473 268 -10 4 -13 -6 -13 -39z"/>
<path d="M4724 3426 c-10 -7 -314 -181 -674 -386 -360 -205 -828 -472 -1040
-593 -212 -120 -403 -229 -425 -242 -22 -12 -78 -45 -125 -72 -47 -27 -92 -52
-100 -56 -8 -4 -31 -17 -50 -28 -64 -38 -1234 -705 -1440 -821 -108 -61 -226
-130 -233 -137 -5 -5 9 -18 31 -29 l39 -20 356 203 c195 111 409 233 474 269
65 37 125 71 133 76 17 11 170 98 240 138 25 14 122 69 216 123 94 54 189 108
210 120 21 12 233 132 469 267 237 135 444 253 460 262 17 9 257 146 535 305
278 158 521 297 540 307 19 11 121 68 225 128 l190 109 1 40 c2 47 -5 55 -32
37z"/>
<path d="M4375 2903 c-198 -113 -380 -217 -405 -231 -25 -14 -88 -50 -140 -80
-52 -30 -115 -66 -140 -80 -25 -14 -201 -114 -391 -223 -191 -108 -369 -209
-395 -224 -27 -15 -141 -80 -254 -145 -168 -96 -1500 -855 -1687 -962 -29 -16
-53 -31 -53 -33 0 -2 18 -12 40 -24 l40 -21 243 139 c133 76 375 214 537 306
162 93 531 303 820 468 289 165 541 309 560 320 19 11 69 39 110 62 178 101
687 391 1115 635 l380 217 3 42 c2 29 0 41 -10 41 -7 -1 -175 -93 -373 -207z"/>
<path d="M4360 2573 c-206 -118 -730 -417 -1165 -665 -827 -471 -1047 -597
-1105 -631 -19 -11 -60 -34 -91 -51 -227 -126 -807 -461 -804 -466 2 -3 19
-14 39 -24 l35 -19 128 73 c110 63 187 107 449 256 23 13 230 131 460 262 231
131 439 250 464 264 25 14 122 70 215 123 94 54 190 109 215 123 25 14 153 87
285 162 387 222 1038 592 1065 607 14 7 66 37 115 66 l90 52 1 43 c1 26 -2 42
-10 41 -6 0 -180 -98 -386 -216z"/>
<path d="M3745 1899 c-550 -314 -1025 -584 -1055 -601 -30 -17 -116 -66 -190
-108 -74 -43 -151 -87 -170 -97 -19 -11 -195 -111 -390 -223 -195 -111 -381
-217 -413 -235 -57 -32 -58 -32 -35 -47 59 -39 6 -66 948 475 58 33 125 71
150 85 25 14 441 251 925 527 484 276 961 548 1061 605 l181 103 2 43 c0 24
-2 44 -6 44 -5 0 -458 -257 -1008 -571z"/>
<path d="M4310 1899 c-239 -137 -446 -255 -460 -263 -34 -18 -299 -169 -380
-216 -62 -36 -1387 -792 -1460 -832 -168 -94 -250 -143 -250 -150 0 -4 16 -16
36 -26 l37 -19 296 170 c355 203 359 205 441 251 36 20 72 40 80 46 8 5 33 19
55 31 22 12 73 41 112 65 40 24 75 44 77 44 2 0 44 23 93 51 48 29 108 63 133
77 25 14 218 124 430 245 212 121 405 231 430 245 127 71 682 388 728 415 50
30 52 32 50 74 -1 24 -4 43 -7 42 -3 0 -202 -113 -441 -250z"/>
<path d="M4690 1793 c-134 -76 -2188 -1246 -2250 -1283 -36 -21 -83 -48 -105
-60 -22 -12 -100 -56 -173 -98 l-132 -75 39 -24 40 -23 43 24 c24 13 88 50
143 81 55 32 120 69 145 83 70 39 876 499 955 544 39 22 90 52 115 66 25 14
99 56 164 94 66 37 120 68 120 68 1 0 217 123 481 274 l480 274 3 46 c2 25 2
46 0 46 -2 0 -32 -17 -68 -37z"/>
<path d="M4280 1242 c-256 -147 -804 -460 -1218 -696 l-753 -429 41 -24 40
-24 50 30 c28 17 52 31 54 31 3 0 37 19 78 43 40 24 100 59 133 77 33 18 344
195 690 393 347 198 650 371 675 385 25 14 171 97 325 185 154 88 298 170 320
183 37 20 40 25 41 68 1 25 -1 46 -5 45 -3 -1 -215 -121 -471 -267z"/>
</g>
</svg>
